<?xml version="1.0" standalone="no"?>
<!DOCTYPE svg PUBLIC "-//W3C//DTD SVG 20010904//EN"
 "http://www.w3.org/TR/2001/REC-SVG-20010904/DTD/svg10.dtd">
<svg version="1.0" xmlns="http://www.w3.org/2000/svg"
 width="400.000000pt" height="400.000000pt" viewBox="0 0 400.000000 400.000000"
 preserveAspectRatio="xMidYMid meet">
<metadata>
Created by potrace 1.14, written by Peter Selinger 2001-2017
</metadata>
<g transform="translate(0.000000,400.000000) scale(0.100000,-0.100000)"
fill="#000000" stroke="none">
<path d="M1538 3983 c12 -2 32 -2 45 0 12 2 2 4 -23 4 -25 0 -35 -2 -22 -4z"/>
<path d="M1688 3983 c6 -2 18 -2 25 0 6 3 1 5 -13 5 -14 0 -19 -2 -12 -5z"/>
<path d="M3140 3964 c-11 -12 -10 -18 3 -31 8 -9 23 -13 31 -10 21 8 21 43 0
51 -21 8 -20 8 -34 -10z"/>
<path d="M3690 3970 c0 -5 -5 -9 -11 -7 -22 4 -20 -21 2 -28 24 -8 56 16 45
34 -9 14 -36 14 -36 1z"/>
<path d="M843 3963 c9 -2 23 -2 30 0 6 3 -1 5 -18 5 -16 0 -22 -2 -12 -5z"/>
<path d="M458 3953 c61 -2 163 -2 225 0 61 1 11 3 -113 3 -124 0 -174 -2 -112
-3z"/>
<path d="M48 3943 c23 -2 59 -2 80 0 20 2 1 4 -43 4 -44 0 -61 -2 -37 -4z"/>
<path d="M2640 3930 c0 -15 7 -20 25 -20 18 0 25 5 25 20 0 15 -7 20 -25 20
-18 0 -25 -5 -25 -20z"/>
<path d="M2104 3923 c4 -8 6 -17 6 -19 0 -2 9 -4 20 -4 11 0 20 5 20 10 0 6 1
13 3 18 1 4 -11 7 -26 8 -20 1 -27 -3 -23 -13z"/>
<path d="M1440 3915 c0 -8 2 -15 4 -15 2 0 6 7 10 15 3 8 1 15 -4 15 -6 0 -10
-7 -10 -15z"/>
<path d="M3270 3899 c-140 -4 -367 -12 -505 -18 -137 -5 -434 -10 -660 -11
-414 0 -996 -9 -1004 -16 -2 -2 128 -5 290 -6 162 0 274 -4 249 -7 -37 -6 -40
-8 -20 -13 14 -3 -36 -6 -110 -7 -214 -4 -124 -19 120 -21 118 -1 204 -5 190
-9 -21 -6 -14 -10 40 -22 62 -13 63 -14 30 -20 -19 -3 125 -6 320 -5 195 0
463 0 595 -1 132 -1 341 2 465 7 124 4 339 8 478 9 l252 1 0 75 0 75 -237 -2
c-131 -1 -353 -6 -493 -9z m-1353 -105 c-3 -3 -12 -4 -19 -1 -8 3 -5 6 6 6 11
1 17 -2 13 -5z"/>
<path d="M773 3853 c20 -2 54 -2 75 0 20 2 3 4 -38 4 -41 0 -58 -2 -37 -4z"/>
<path d="M145 3840 l-140 -6 135 -1 c74 0 218 3 320 6 l185 7 -180 0 c-99 0
-243 -3 -320 -6z"/>
<path d="M670 3810 c-11 -7 -7 -10 18 -10 17 0 32 5 32 10 0 13 -30 13 -50 0z"/>
<path d="M938 3813 c34 -2 90 -2 125 0 34 2 6 3 -63 3 -69 0 -97 -1 -62 -3z"/>
<path d="M1338 3813 c7 -3 16 -2 19 1 4 3 -2 6 -13 5 -11 0 -14 -3 -6 -6z"/>
<path d="M10 3800 c0 -6 33 -10 85 -10 47 0 85 4 85 9 0 5 -38 9 -85 10 -53 1
-85 -2 -85 -9z"/>
<path d="M308 3803 c61 -2 163 -2 225 0 61 1 11 3 -113 3 -124 0 -174 -2 -112
-3z"/>
<path d="M3030 3660 c8 -5 24 -10 34 -10 26 0 18 6 -19 14 -22 5 -26 4 -15 -4z"/>
<path d="M196 3605 c-3 -9 -6 -22 -5 -28 0 -7 5 -1 10 12 5 13 8 26 5 28 -2 2
-6 -3 -10 -12z"/>
<path d="M2996 3604 c-22 -8 -47 -20 -55 -28 -9 -7 -23 -11 -31 -9 -13 4 -13
3 0 -6 9 -6 10 -11 3 -11 -6 0 -24 -25 -39 -55 -18 -38 -30 -52 -38 -46 -6 5
-35 17 -64 26 -39 13 -50 20 -40 27 10 7 8 8 -5 4 -10 -3 -50 1 -90 10 -86 18
-395 21 -502 4 -74 -11 -233 -57 -250 -71 -18 -17 -33 -9 -52 28 -25 48 -57
71 -113 81 -67 12 -110 -1 -149 -45 -41 -46 -61 -91 -61 -135 0 -40 32 -113
54 -125 14 -8 12 -14 -17 -44 -38 -38 -112 -136 -144 -189 -29 -46 -148 -289
-157 -318 -4 -12 -10 -21 -14 -19 -4 3 -20 -2 -37 -10 l-30 -14 33 5 c34 6 39
-2 22 -35 -6 -11 -13 -36 -16 -56 -2 -19 -13 -70 -25 -112 -18 -67 -42 -174
-94 -416 -8 -38 -24 -126 -35 -195 -21 -136 -25 -149 -77 -320 -46 -151 -165
-391 -244 -490 -166 -208 -265 -356 -325 -488 -23 -52 -44 -95 -46 -98 -3 -2
-5 14 -6 37 -1 22 -6 48 -11 57 -7 12 -8 -2 -5 -42 3 -32 7 -63 10 -67 3 -5 2
-15 -3 -21 -4 -7 -17 -42 -28 -78 -19 -58 -24 -65 -54 -74 -30 -9 -36 -7 -53
17 -21 29 -51 34 -93 15 -25 -11 -29 -24 -25 -83 2 -37 31 -106 52 -122 15
-13 100 -14 92 -1 -2 4 0 9 6 13 5 3 10 23 10 45 0 33 12 50 34 50 2 0 6 -37
9 -82 3 -46 9 -91 12 -100 12 -31 25 -19 17 15 -4 17 -7 65 -7 105 l0 74 105
33 c58 18 137 42 175 54 39 11 108 32 155 46 l86 25 54 -51 c97 -89 229 -137
341 -125 33 4 59 4 59 0 0 -5 -23 -48 -51 -97 -27 -49 -48 -92 -45 -95 4 -3
13 3 21 14 13 18 14 18 15 1 0 -10 4 -15 10 -12 5 3 9 17 8 30 -2 20 27 91 43
105 3 3 12 20 20 38 13 29 21 36 41 33 9 -1 144 63 172 81 20 13 80 72 104
102 19 24 28 54 42 134 9 53 16 72 27 72 11 0 8 7 -11 25 -27 25 -32 40 -17
49 5 3 8 -2 7 -11 -1 -19 67 -48 92 -38 13 5 12 8 -2 23 -22 26 -20 39 3 18
24 -22 72 -29 64 -10 -3 8 -9 14 -14 14 -5 0 -9 5 -9 10 0 6 14 1 30 -12 24
-17 33 -19 42 -10 9 9 10 15 2 20 -16 10 -28 52 -15 52 6 0 11 -7 11 -15 0 -8
6 -15 14 -15 8 0 22 -10 30 -22 9 -12 16 -18 16 -12 0 7 11 9 25 7 24 -5 24
-6 9 -36 -25 -47 -29 -135 -10 -182 16 -38 16 -41 0 -50 -9 -5 -24 -19 -33
-30 -86 -106 -161 -149 -266 -150 -64 0 -75 -3 -110 -31 -72 -56 -182 -74
-207 -34 -15 23 -28 26 -28 6 0 -33 103 -64 139 -42 5 3 6 -22 3 -59 -3 -45
-1 -65 7 -65 7 0 11 19 11 48 0 53 16 90 45 106 11 6 35 22 54 35 31 22 34 23
26 5 -12 -28 -19 -174 -8 -185 6 -6 9 23 9 73 -1 108 6 119 75 122 85 4 178
54 237 126 34 42 54 59 72 59 59 2 140 30 179 60 l40 32 -21 -58 c-25 -71 -31
-220 -9 -247 17 -21 15 -22 -51 -49 -29 -12 -53 -26 -53 -32 -1 -23 97 20 149
65 37 33 38 33 66 17 15 -9 31 -17 35 -17 14 0 -8 21 -37 36 -29 15 -32 15
-58 -4 l-27 -21 -12 38 c-6 21 -11 56 -11 77 0 52 45 197 69 218 18 16 20 16
56 -9 21 -14 41 -25 44 -25 3 0 6 -53 6 -118 0 -108 2 -121 26 -163 29 -52 28
-59 -16 -81 -57 -29 -95 -30 -116 -5 l-20 22 6 -22 c4 -15 2 -23 -6 -23 -12 0
-69 -59 -69 -73 0 -13 39 13 50 33 7 12 21 20 38 20 42 0 132 27 153 46 12 11
42 18 89 21 61 4 75 2 93 -14 30 -27 118 -83 130 -83 5 0 7 -6 4 -13 -4 -11
26 -13 158 -13 l164 1 40 39 40 39 6 -29 c11 -49 17 -61 22 -46 3 8 0 33 -7
57 -10 36 -10 47 2 64 14 20 16 17 33 -46 19 -74 39 -110 29 -53 -3 19 -12 59
-20 88 -19 69 -41 196 -36 211 10 29 21 3 37 -86 17 -99 50 -232 60 -241 11
-11 4 36 -15 96 -11 35 -24 93 -30 130 -6 37 -13 78 -16 92 -3 14 13 -10 35
-53 69 -133 174 -275 198 -266 7 2 -11 29 -39 59 -27 30 -57 68 -65 85 -9 16
-19 32 -23 35 -5 3 -26 41 -49 84 l-41 80 70 18 71 18 107 -87 c59 -48 132
-108 162 -133 90 -77 204 -160 218 -160 8 0 -33 36 -89 81 -94 73 -184 147
-213 174 -6 6 -31 25 -56 43 -66 46 -116 92 -102 92 14 0 104 -67 222 -165
123 -102 291 -225 307 -225 8 0 -43 44 -114 97 -72 54 -152 117 -179 140 -27
23 -84 70 -128 104 l-78 62 28 15 c34 17 64 42 64 53 0 4 -26 -8 -57 -27 -32
-19 -69 -37 -83 -40 -14 -3 -36 -10 -50 -16 -42 -17 -179 -18 -260 -2 -81 16
-150 42 -150 56 0 39 79 122 151 158 45 23 48 37 5 20 -50 -19 -148 -101 -163
-137 l-14 -35 -32 25 c-43 33 -115 122 -123 152 -4 15 2 40 17 69 23 46 92
126 109 126 6 0 10 5 10 10 0 6 -4 10 -8 10 -14 0 -115 -107 -133 -142 -10
-18 -19 -28 -19 -23 -1 6 -4 30 -7 54 -12 98 43 253 118 332 158 166 429 183
699 43 79 -41 135 -87 258 -212 51 -52 95 -92 97 -90 2 2 -16 29 -40 60 -40
51 -66 75 -202 187 -200 164 -537 212 -723 104 -49 -29 -156 -136 -166 -165
-6 -19 -34 -25 -34 -7 0 6 -7 9 -14 6 -10 -4 -13 -1 -9 9 3 7 -1 14 -8 14 -12
0 -69 57 -69 69 0 3 -15 16 -34 29 -24 16 -41 21 -59 16 -21 -5 -36 2 -69 29
-62 49 -87 62 -102 47 -8 -8 -4 -16 17 -32 16 -11 44 -35 63 -53 l34 -32 -20
-79 c-19 -72 -24 -82 -78 -131 -31 -30 -69 -60 -84 -68 -15 -8 -47 -29 -72
-45 -75 -51 -197 -87 -216 -65 -13 16 -11 17 60 40 57 18 80 31 80 46 0 15
-44 10 -106 -11 -56 -20 -60 -20 -91 -3 -30 16 -33 16 -50 1 -10 -9 -42 -20
-70 -24 -29 -3 -58 -13 -64 -20 -6 -8 -20 -14 -30 -14 -10 0 -21 -4 -24 -10
-13 -21 -31 -8 -53 38 -27 57 -87 107 -188 154 -67 32 -73 33 -194 33 -112 0
-134 -3 -210 -29 -128 -43 -264 -116 -310 -166 -3 -3 -19 -17 -36 -31 -78 -64
-244 -276 -244 -312 0 -18 19 5 59 72 75 128 251 294 372 352 273 133 459 139
636 23 71 -47 76 -53 114 -134 48 -104 39 -213 -27 -313 -13 -20 -29 -37 -35
-37 -5 0 -7 5 -3 12 14 22 3 142 -17 183 -10 22 -16 31 -12 20 12 -37 15 -178
4 -214 -11 -38 -64 -75 -150 -106 -41 -14 -41 -14 -41 10 0 40 -31 118 -62
158 -17 21 -33 36 -35 33 -3 -3 6 -19 21 -36 26 -31 56 -115 56 -157 0 -30
-25 -36 -147 -31 -85 3 -106 7 -156 32 -75 38 -175 129 -198 181 l-19 40 0
-32 c0 -29 -3 -32 -42 -38 -56 -9 -230 -57 -343 -94 -49 -16 -92 -28 -94 -26
-5 6 29 105 54 155 12 25 28 63 35 85 27 83 160 285 333 505 86 110 205 345
242 480 7 25 24 85 39 133 14 49 33 135 42 190 41 262 140 707 183 822 80 214
190 406 300 527 34 36 61 68 61 71 0 3 -9 7 -19 10 -29 7 -61 66 -61 110 0 53
21 97 64 135 31 27 44 32 84 31 73 -2 94 -11 127 -58 l30 -43 -24 -19 c-13
-11 -31 -24 -40 -29 -9 -5 -13 -12 -9 -15 4 -4 28 5 53 19 62 37 236 92 329
105 43 6 149 11 235 11 132 0 176 -4 268 -25 61 -13 134 -36 163 -49 30 -14
57 -23 61 -21 3 3 9 22 13 44 7 44 44 94 87 116 15 8 55 15 89 15 69 0 128
-30 149 -77 34 -75 21 -167 -33 -216 -24 -24 -27 -30 -15 -37 8 -5 26 -19 40
-32 14 -13 36 -33 50 -43 13 -11 46 -47 74 -80 27 -33 55 -66 62 -73 45 -47
161 -315 188 -437 18 -79 79 -595 100 -840 29 -338 66 -464 181 -616 66 -86
143 -167 143 -149 0 8 -22 40 -50 70 -143 154 -207 287 -229 475 -6 55 -15
132 -20 170 -5 39 -14 126 -20 195 -10 111 -25 245 -60 530 -6 47 -19 123 -30
169 -20 83 -19 110 3 93 7 -5 54 -24 105 -42 51 -18 95 -37 98 -42 3 -5 0 -15
-6 -23 -8 -9 -8 -15 -2 -15 6 0 12 3 14 8 5 11 140 109 169 122 l26 12 -20 41
c-25 54 -25 54 -42 31 -14 -18 -14 -17 -15 13 0 25 4 32 22 35 26 3 37 36 17
49 -10 6 -6 17 14 48 33 49 39 144 11 155 -11 4 -14 13 -11 28 4 12 1 28 -5
35 -8 9 -7 18 3 30 11 13 11 17 2 20 -8 3 -13 21 -12 46 0 35 2 38 9 20 5 -13
11 -23 14 -23 10 0 12 53 1 63 -6 7 -14 27 -18 45 -5 24 -3 32 8 32 8 0 15 5
15 11 0 6 -6 9 -14 6 -17 -7 -36 11 -36 34 0 10 -4 20 -8 23 -5 3 -8 -34 -7
-82 1 -48 -2 -90 -7 -93 -4 -3 -10 -47 -13 -98 -3 -51 -10 -101 -15 -111 -6
-10 -10 -39 -10 -64 0 -44 1 -46 30 -46 28 0 30 -2 30 -40 0 -22 -4 -40 -10
-40 -5 0 -10 7 -10 15 0 12 -13 15 -59 15 -43 0 -60 -4 -65 -15 -3 -8 -12 -15
-21 -15 -11 0 -15 11 -15 40 0 22 -2 40 -4 40 -9 0 -76 -73 -76 -82 0 -13 33
-68 40 -68 4 0 13 11 20 25 17 31 30 32 58 2 29 -31 28 -37 -8 -37 -27 0 -30
-3 -30 -30 0 -28 -2 -30 -40 -30 -22 0 -40 -4 -40 -10 0 -5 11 -10 24 -10 13
0 41 -7 62 -16 37 -15 37 -17 19 -31 -18 -12 -20 -12 -23 1 -4 18 -22 22 -22
5 0 -14 -62 -4 -104 17 -16 8 -39 14 -52 14 -18 0 -23 7 -29 40 -4 22 -7 43
-7 47 0 5 -11 21 -24 36 -23 27 -33 54 -16 44 4 -3 8 14 9 36 l2 42 -11 -35
-10 -35 -29 59 c-34 69 -33 66 -15 66 15 0 31 -34 23 -48 -3 -4 1 -18 9 -32
l15 -25 -4 27 c-2 15 -1 27 2 26 3 0 25 0 49 1 33 1 42 5 43 19 0 15 1 15 8
-1 6 -17 8 -17 20 -4 10 13 9 17 -5 25 -22 12 -11 42 15 42 11 0 23 -4 26 -10
11 -18 25 -10 25 14 0 21 -5 24 -47 28 -49 4 -67 -6 -58 -31 10 -27 -44 -58
-58 -33 -2 4 -2 1 0 -6 7 -28 -9 -32 -29 -7 -12 16 -28 25 -38 22 -14 -4 -16
4 -16 47 l1 51 43 3 c50 4 57 22 7 22 -25 0 -43 -8 -66 -31 -17 -17 -28 -33
-24 -37 4 -4 10 -1 12 6 8 22 20 12 20 -18 0 -16 -2 -30 -5 -30 -13 0 -40 48
-36 63 3 9 1 17 -5 17 -6 0 -17 12 -25 28 -8 15 -15 22 -16 16 0 -5 7 -19 15
-30 26 -34 16 -36 -12 -2 -16 18 -31 35 -35 36 -5 2 -8 12 -8 23 0 10 -4 18
-9 17 -5 -2 -30 15 -55 36 -41 34 -45 41 -32 55 67 77 62 223 -9 279 -14 11
-22 22 -18 24 5 3 2 3 -5 2 -7 -2 -22 0 -35 5 -46 17 -103 19 -141 5z m931
-551 c-3 -10 -5 -4 -5 12 0 17 2 24 5 18 2 -7 2 -21 0 -30z m-49 -296 c25 -26
20 -37 -15 -37 -19 0 -23 5 -23 30 0 36 9 38 38 7z m-38 -47 c0 -5 -6 -10 -14
-10 -8 0 -18 5 -21 10 -3 6 3 10 14 10 12 0 21 -4 21 -10z m40 -15 c7 -8 8
-15 2 -15 -5 0 -15 7 -22 15 -7 8 -8 15 -2 15 5 0 15 -7 22 -15z m-30 -45 c-8
-5 -22 -10 -30 -10 -13 0 -13 1 0 10 8 5 22 10 30 10 13 0 13 -1 0 -10z
m-1446 -1498 c22 -20 55 -47 71 -59 17 -12 26 -23 20 -23 -5 0 -23 12 -40 26
-16 14 -48 41 -69 60 -22 19 -36 34 -31 34 4 0 26 -17 49 -38z m132 -59 c1
-12 -12 -42 -27 -67 -30 -48 -35 -66 -20 -66 25 0 44 16 61 51 22 43 26 64 8
53 -7 -4 -8 -3 -4 5 4 6 12 9 17 6 10 -7 8 -55 -3 -55 -4 0 -8 -6 -8 -13 0 -8
-9 -22 -20 -32 -25 -23 -26 -45 -1 -45 18 0 71 45 71 61 0 5 5 9 10 9 13 0 0
-27 -29 -57 -12 -12 -21 -27 -21 -33 0 -17 27 -23 49 -10 21 11 31 -3 11 -15
-17 -10 -11 -25 9 -25 23 0 37 16 19 23 -7 2 -9 8 -5 13 15 16 25 -18 16 -55
-13 -55 -11 -122 7 -180 20 -68 39 -99 103 -166 29 -30 48 -55 42 -55 -6 0
-11 -18 -11 -39 0 -22 -4 -43 -10 -46 -16 -10 -130 23 -175 50 -73 44 -70 41
-54 61 13 16 12 17 -16 11 -63 -14 -121 -18 -150 -9 -49 13 -82 87 -91 199
-10 133 -5 146 80 235 97 102 153 198 115 198 -5 0 -7 5 -4 11 10 16 30 5 31
-18z m-58 -68 c-6 -14 -15 -25 -20 -25 -11 0 -10 7 2 31 16 28 32 23 18 -6z
m52 -25 c0 -5 -5 -10 -11 -10 -5 0 -7 5 -4 10 3 6 8 10 11 10 2 0 4 -4 4 -10z
m40 -35 c-7 -8 -17 -15 -22 -15 -6 0 -5 7 2 15 7 8 17 15 22 15 6 0 5 -7 -2
-15z m96 -31 c-10 -14 -20 -23 -23 -21 -2 3 3 17 13 31 9 15 19 24 22 22 2 -3
-3 -17 -12 -32z m-36 0 c0 -3 -7 -12 -15 -21 -20 -19 -32 -9 -15 12 12 15 30
20 30 9z m-328 -132 c-18 -12 -9 -217 12 -257 21 -40 20 -48 -4 -33 -11 7 -20
19 -20 26 0 16 -28 2 -81 -39 -20 -16 -40 -29 -43 -29 -18 0 -50 91 -52 152
-3 75 -9 67 91 131 28 17 52 34 55 38 6 7 30 17 45 18 6 0 4 -3 -3 -7z m-496
-99 c-10 -10 -19 5 -10 18 6 11 8 11 12 0 2 -7 1 -15 -2 -18z m291 -81 c1 -43
8 -84 22 -115 12 -27 21 -51 21 -53 0 -11 -96 -45 -118 -42 -35 4 -56 73 -49
155 7 74 20 98 61 111 59 19 61 18 63 -56z m-380 42 c-3 -3 -12 -4 -19 -1 -8
3 -5 6 6 6 11 1 17 -2 13 -5z m837 -235 c40 -54 182 -101 302 -100 l82 1 6
-31 c16 -81 -12 -201 -58 -252 -32 -35 -34 -35 -77 -26 -90 21 -233 101 -224
127 4 10 -4 11 -30 7 -19 -3 -50 -7 -69 -10 -57 -9 -77 5 -97 70 -25 83 -33
157 -20 197 l11 33 81 -1 c61 0 84 -4 93 -15z m342 -21 c27 -12 54 -23 59 -25
98 -27 124 -33 147 -33 34 0 29 -17 -12 -45 -39 -26 -39 -40 0 -20 16 8 31 15
34 15 2 0 8 -29 11 -65 9 -82 -3 -113 -67 -177 -48 -47 -49 -48 -113 -48 -69
0 -77 6 -45 35 30 28 51 105 51 194 0 44 -3 85 -6 91 -3 6 1 13 9 16 9 3 14
10 11 15 -3 4 -16 4 -29 0 -12 -5 -43 -11 -67 -12 l-44 -4 -3 43 c-2 23 1 42
6 42 5 0 31 -10 58 -22z m-2076 -17 c0 -10 0 -10 -105 -40 -38 -10 -168 -49
-288 -85 -120 -36 -220 -66 -222 -66 -3 0 -5 7 -5 15 0 8 17 19 43 25 23 7 89
27 147 45 58 19 152 47 210 63 58 16 121 34 140 40 46 13 80 14 80 3z m-635
-122 c11 -17 -1 -21 -15 -4 -8 9 -8 15 -2 15 6 0 14 -5 17 -11z m-49 -34 c-1
-19 2 -35 5 -35 7 0 23 -58 20 -72 0 -5 3 -8 9 -8 5 0 10 -4 10 -10 0 -26 -21
-5 -44 44 -27 58 -33 81 -16 71 6 -3 10 -1 10 4 0 6 -4 11 -10 11 -5 0 -7 7
-4 15 11 27 22 16 20 -20z m86 -69 c4 -6 2 -14 -5 -18 -9 -6 -9 -10 2 -17 7
-5 9 -11 4 -14 -5 -3 -14 3 -21 14 -9 13 -9 19 -1 19 6 0 1 9 -12 19 l-24 20
25 -6 c14 -3 28 -11 32 -17z"/>
<path d="M2896 3592 c-2 -4 4 -8 14 -8 10 0 16 4 14 8 -3 4 -9 8 -14 8 -5 0
-11 -4 -14 -8z"/>
<path d="M2383 3573 c15 -2 39 -2 55 0 15 2 2 4 -28 4 -30 0 -43 -2 -27 -4z"/>
<path d="M2488 3573 c6 -2 18 -2 25 0 6 3 1 5 -13 5 -14 0 -19 -2 -12 -5z"/>
<path d="M2538 3553 c7 -3 16 -2 19 1 4 3 -2 6 -13 5 -11 0 -14 -3 -6 -6z"/>
<path d="M2620 3550 c0 -5 5 -10 10 -10 6 0 10 5 10 10 0 6 -4 10 -10 10 -5 0
-10 -4 -10 -10z"/>
<path d="M181 3534 c0 -11 3 -14 6 -6 3 7 2 16 -1 19 -3 4 -6 -2 -5 -13z"/>
<path d="M2760 3500 c0 -5 5 -10 10 -10 6 0 10 5 10 10 0 6 -4 10 -10 10 -5 0
-10 -4 -10 -10z"/>
<path d="M181 3344 c0 -11 3 -14 6 -6 3 7 2 16 -1 19 -3 4 -6 -2 -5 -13z"/>
<path d="M3360 3349 c0 -5 5 -7 10 -4 6 3 10 8 10 11 0 2 -4 4 -10 4 -5 0 -10
-5 -10 -11z"/>
<path d="M3822 3273 c-3 -113 -7 -153 -14 -153 -16 0 -7 -30 12 -42 11 -7 20
-18 20 -25 0 -7 5 -13 10 -13 6 0 10 4 10 9 0 6 -4 13 -10 16 -6 4 -10 62 -10
141 0 74 -4 134 -9 134 -4 0 -9 -30 -9 -67z"/>
<path d="M3256 3303 c-6 -13 -9 -14 -15 -4 -7 10 -9 10 -14 -1 -3 -8 2 -14 13
-15 17 -2 36 24 26 34 -2 2 -7 -4 -10 -14z"/>
<path d="M1635 3290 c-3 -5 -1 -10 4 -10 6 0 11 5 11 10 0 6 -2 10 -4 10 -3 0
-8 -4 -11 -10z"/>
<path d="M1282 3240 c0 -19 2 -27 5 -17 2 9 2 25 0 35 -3 9 -5 1 -5 -18z"/>
<path d="M3245 3250 c14 -16 20 -17 27 -8 12 19 9 35 -3 18 -8 -11 -12 -12
-16 -2 -2 6 -9 12 -15 12 -6 0 -3 -9 7 -20z"/>
<path d="M3760 3208 c0 -4 -8 -8 -17 -9 -11 0 -7 -5 11 -11 22 -8 30 -7 37 3
13 21 11 25 -11 25 -11 0 -20 -4 -20 -8z"/>
<path d="M3320 3190 c-8 -5 -11 -12 -7 -17 5 -4 12 -1 18 7 8 13 10 13 20 0 9
-12 10 -12 7 -1 -5 19 -19 23 -38 11z"/>
<path d="M3745 3130 c-17 -7 -15 -9 13 -9 17 -1 32 4 32 9 0 12 -17 12 -45 0z"/>
<path d="M3618 3113 c12 -2 32 -2 45 0 12 2 2 4 -23 4 -25 0 -35 -2 -22 -4z"/>
<path d="M3660 2990 c0 -5 5 -10 10 -10 6 0 10 5 10 10 0 6 -4 10 -10 10 -5 0
-10 -4 -10 -10z"/>
<path d="M3535 2860 c-3 -5 1 -10 10 -10 9 0 13 5 10 10 -3 6 -8 10 -10 10 -2
0 -7 -4 -10 -10z"/>
<path d="M3566 2814 c-3 -9 -6 -28 -6 -42 1 -26 1 -26 15 7 8 18 15 37 15 42
0 15 -17 10 -24 -7z"/>
<path d="M3595 2760 c0 -25 4 -40 12 -40 6 0 24 -5 40 -11 37 -16 83 -21 83
-10 0 5 -22 11 -49 15 l-49 6 2 40 c3 35 1 40 -18 40 -18 0 -21 -6 -21 -40z"/>
<path d="M447 2764 c-3 -5 36 -10 86 -11 63 -1 122 -9 186 -27 52 -14 90 -22
85 -17 -30 29 -343 77 -357 55z"/>
<path d="M3581 2754 c0 -11 3 -14 6 -6 3 7 2 16 -1 19 -3 4 -6 -2 -5 -13z"/>
<path d="M308 2743 c-10 -2 -18 -9 -18 -14 0 -14 16 -11 30 6 7 8 11 14 9 14
-2 -1 -12 -3 -21 -6z"/>
<path d="M373 2723 c9 -2 23 -2 30 0 6 3 -1 5 -18 5 -16 0 -22 -2 -12 -5z"/>
<path d="M458 2713 c7 -3 16 -2 19 1 4 3 -2 6 -13 5 -11 0 -14 -3 -6 -6z"/>
<path d="M860 2675 c14 -8 30 -14 35 -14 6 0 -1 6 -15 14 -14 8 -29 14 -35 14
-5 0 1 -6 15 -14z"/>
<path d="M262 2650 c0 -14 2 -19 5 -12 2 6 2 18 0 25 -3 6 -5 1 -5 -13z"/>
<path d="M700 2646 c0 -2 7 -7 16 -10 8 -3 12 -2 9 4 -6 10 -25 14 -25 6z"/>
<path d="M1098 2643 c6 -2 18 -2 25 0 6 3 1 5 -13 5 -14 0 -19 -2 -12 -5z"/>
<path d="M940 2636 c0 -2 7 -7 16 -10 8 -3 12 -2 9 4 -6 10 -25 14 -25 6z"/>
<path d="M988 2603 c7 -3 16 -2 19 1 4 3 -2 6 -13 5 -11 0 -14 -3 -6 -6z"/>
<path d="M1852 2588 c-26 -26 -8 -88 24 -88 19 0 44 29 44 50 0 21 -25 50 -44
50 -6 0 -17 -5 -24 -12z"/>
<path d="M271 2565 c0 -16 4 -37 9 -45 8 -12 10 -10 9 10 0 14 -4 34 -9 45 -7
17 -9 16 -9 -10z"/>
<path d="M2677 2572 c-41 -45 1 -115 44 -76 25 23 25 70 0 84 -25 13 -25 13
-44 -8z"/>
<path d="M1108 2563 c6 -2 18 -2 25 0 6 3 1 5 -13 5 -14 0 -19 -2 -12 -5z"/>
<path d="M945 2520 c-13 -6 -15 -9 -5 -9 8 0 22 4 30 9 18 12 2 12 -25 0z"/>
<path d="M2045 2487 c-37 -13 -33 -13 60 -9 55 2 126 0 158 -6 31 -5 57 -6 57
-2 0 22 -219 35 -275 17z"/>
<path d="M1730 2395 c-25 -13 -59 -36 -76 -52 -41 -37 -109 -162 -129 -238
-27 -104 -17 -274 22 -387 27 -78 32 -55 7 32 -33 112 -40 237 -20 323 38 161
116 271 229 322 29 13 43 24 32 24 -11 0 -40 -11 -65 -24z"/>
<path d="M2007 2376 c-91 -25 -126 -92 -71 -135 41 -32 100 -44 199 -39 73 3
98 8 128 27 31 19 37 28 37 56 0 81 -152 129 -293 91z"/>
<path d="M371 2274 c0 -11 3 -14 6 -6 3 7 2 16 -1 19 -3 4 -6 -2 -5 -13z"/>
<path d="M430 2145 c0 -6 13 -26 30 -45 16 -19 29 -30 30 -25 0 6 -13 26 -30
45 -16 19 -29 30 -30 25z"/>
<path d="M495 2050 c3 -5 8 -10 11 -10 2 0 4 5 4 10 0 6 -5 10 -11 10 -5 0 -7
-4 -4 -10z"/>
<path d="M557 2003 c-4 -3 -7 -16 -6 -27 0 -19 1 -19 10 3 10 24 8 36 -4 24z"/>
<path d="M531 1933 c-1 -6 -4 -20 -7 -30 -5 -17 -5 -17 6 0 6 10 9 23 6 30 -3
9 -5 9 -5 0z"/>
<path d="M496 1824 c-10 -34 -16 -68 -13 -75 3 -9 6 -6 6 7 1 12 8 38 17 59 8
20 14 44 12 53 -2 10 -12 -11 -22 -44z"/>
<path d="M436 1604 c-4 -14 -5 -28 -3 -31 3 -2 8 8 11 23 4 14 5 28 3 31 -3 2
-8 -8 -11 -23z"/>
<path d="M2045 1590 c-12 -19 135 -27 181 -10 39 15 26 20 -28 10 -25 -5 -69
-5 -97 -1 -29 4 -54 5 -56 1z"/>
<path d="M411 1504 c0 -11 3 -14 6 -6 3 7 2 16 -1 19 -3 4 -6 -2 -5 -13z"/>
<path d="M401 1464 c0 -11 3 -14 6 -6 3 7 2 16 -1 19 -3 4 -6 -2 -5 -13z"/>
<path d="M392 1400 c0 -14 2 -19 5 -12 2 6 2 18 0 25 -3 6 -5 1 -5 -13z"/>
<path d="M343 1040 c0 -41 2 -58 4 -37 2 20 2 54 0 75 -2 20 -4 3 -4 -38z"/>
<path d="M332 930 c0 -14 2 -19 5 -12 2 6 2 18 0 25 -3 6 -5 1 -5 -13z"/>
<path d="M138 923 c34 -2 90 -2 125 0 34 2 6 3 -63 3 -69 0 -97 -1 -62 -3z"/>
<path d="M328 798 c-2 -51 0 -113 3 -138 4 -27 7 10 8 93 0 75 -1 137 -3 137
-3 0 -6 -42 -8 -92z"/>
<path d="M108 873 c18 -2 45 -2 60 0 15 2 0 4 -33 4 -33 0 -45 -2 -27 -4z"/>
<path d="M208 873 c6 -2 18 -2 25 0 6 3 1 5 -13 5 -14 0 -19 -2 -12 -5z"/>
<path d="M268 873 c12 -2 30 -2 40 0 9 3 -1 5 -23 4 -22 0 -30 -2 -17 -4z"/>
<path d="M240 790 c0 -19 3 -21 12 -12 9 9 9 15 0 24 -9 9 -12 7 -12 -12z"/>
<path d="M83 713 c43 -2 110 -2 150 0 40 1 5 3 -78 3 -82 0 -115 -2 -72 -3z"/>
<path d="M1910 122 c-14 -9 -27 -19 -30 -22 -12 -12 -48 -28 -78 -34 -47 -11
-54 -31 -8 -23 39 6 156 72 156 88 0 13 -11 10 -40 -9z"/>
<path d="M3960 25 c-26 -19 -30 -25 -14 -25 24 1 57 25 52 40 -2 6 -17 0 -38
-15z"/>
</g>
</svg>
